<svg id="Capa_1" enable-background="new 0 0 512 512" height="512" viewBox="0 0 512 512" width="512" xmlns="http://www.w3.org/2000/svg" xmlns:xlink="http://www.w3.org/1999/xlink"><path d="m168.338 52.655c-7.518-1.175-15-2.569-22.4-4.417-4.287-1.072-8.631 1.534-9.703 5.821s1.534 8.631 5.821 9.703c8.557 2.138 17.228 3.73 25.941 5.02v11.218c0 22.091 17.909 40 40 40s40-17.909 40-40v-11.218c8.713-1.29 17.384-2.882 25.941-5.02 4.287-1.072 6.893-5.416 5.821-9.703s-5.416-6.893-9.703-5.821c-7.392 1.848-14.879 3.242-22.4 4.417-1.726-21.905-20.883-38.262-42.788-36.536-19.506 1.537-34.999 17.03-36.536 36.536zm63.662 27.345c0 13.255-10.745 24-24 24s-24-10.745-24-24v-9.332c7.984.7 15.987 1.18 24 1.18s16.016-.477 24-1.18zm-.139-25.377c-15.873 1.478-31.849 1.478-47.722 0 .704-13.178 11.957-23.29 25.135-22.587 12.195.651 21.936 10.393 22.587 22.587zm86.767 224.177 3.118 3.98c11.754 14.997 33.439 17.625 48.436 5.871 5.306-4.159 9.277-9.781 11.423-16.171.053-.158.061-.321.11-.48h24.394l14.313 7.156c1.111.555 2.336.844 3.578.844h48c4.418 0 8-3.582 8-8v-48c0-4.418-3.582-8-8-8h-48c-1.242 0-2.467.289-3.578.844l-14.313 7.156h-83.55c-2.693-5.775-6.388-11.026-10.914-15.512-3.173-3.166-6.725-5.928-10.574-8.225l-22.771-45.463c-5.647-11.57-17.426-18.878-30.3-18.8h-76.48-.016c-10.378-.049-19.539 6.768-22.473 16.723l-12.011 40.035c-4.995 16.8 1.543 34.893 16.122 44.621-.716 3.496-1.099 7.052-1.142 10.621-.033 17.822 8.492 34.576 22.918 45.04-14.623 9.068-19.28 28.183-10.466 42.96h-4.452c-13.229.062-23.938 10.771-24 24 .031 10.137 6.439 19.158 16 22.525v105.475c0 4.418 3.582 8 8 8h32c4.418 0 8-3.582 8-8v-40h32v40c0 4.418 3.582 8 8 8h32c4.418 0 8-3.582 8-8v-25.052l11.562 7.708c1.314.876 2.859 1.343 4.438 1.344h15.547c7.958.008 15.391-3.969 19.8-10.594l1.39-2.086c.738-1.155 1.373-2.373 1.9-3.638 1.978.715 4.187.324 5.8-1.026l48-32c3.676-2.451 4.67-7.418 2.219-11.094l-9.222-13.832c-6.01-8.997-17.291-12.868-27.559-9.457l-5.822 1.942-47.153-94.315c3.896-2.319 7.486-5.116 10.687-8.326 2.63-2.686 4.989-5.625 7.041-8.774zm97.372-41.855 9.887-4.945h38.113v32h-38.113l-9.887-4.945zm-49.574 30.477c-3.272 9.679-13.771 14.873-23.45 11.601-3.412-1.154-6.414-3.278-8.636-6.113l-.711-.91h5.336c5.594.001 10.571-3.55 12.39-8.84 4.27-12.223 19.882-9.539 15.071 4.262zm-39.026-27.422h72.6v16h-19.194c-.375-.758-6.412-12.454-19.371-13.783-9.909-1.016-19.689 4.458-24.435 13.783h-9.691c.424-2.646.655-5.32.691-8-.01-2.678-.211-5.351-.6-8zm-71.4-86.141c3.469 1.731 6.271 4.558 7.969 8.043l15.309 30.572c-2.414-.312-4.844-.47-7.278-.474-1.568 0-3.102.46-4.41 1.324-3.539 2.324-7.464 4-11.59 4.95zm-62.39-1.859h46.39v46.286c-4.129-.96-8.056-2.641-11.6-4.966-1.306-.86-2.836-1.319-4.4-1.32h-16c-7.125.014-14.179 1.409-20.773 4.107l-1.6-.685 8.43-29.516c1.28-4.572 1.124-9.426-.447-13.906zm-41.262 45.355 12.011-40.039c1.158-3.954 5.301-6.22 9.255-5.063s6.22 5.301 5.063 9.255l-10.368 36.292c-1.107 3.872.838 7.964 4.539 9.551l42.836 18.363c4.475 1.916 6.549 7.097 4.633 11.572-.792 1.849-2.192 3.372-3.969 4.315-2.201 1.19-4.808 1.372-7.153.5l-42.062-15.293c-11.95-4.354-18.433-17.269-14.785-29.453zm15.652 50.645c0-1.236.176-2.492.3-3.741l35.431 12.882c6.607 2.394 13.919 1.882 20.128-1.411 1.136-.641 2.219-1.372 3.238-2.186 1.638 5.939 5.332 11.104 10.422 14.575l-20.191 12.619c-5.183 3.208-10.933 5.391-16.938 6.431-18.775-3.629-32.351-20.046-32.39-39.169zm16 232h-16v-96h16zm48-48h-32v-16h32zm0-32h-32v-16h32zm-72-32c-4.416-.006-7.994-3.584-8-8-.007-2.155.878-4.216 2.445-5.695 1.461-1.492 3.467-2.325 5.555-2.305h81.441l3.2 16zm104 112h-16v-95.209l8.156 40.779c.039.192.155.341.206.527.039.143 0 .293.048.434l7.59 22.769zm6.277-65.414-14.433-72.156c-.748-3.739-4.031-6.43-7.844-6.43h-5.578l18.234-12.156 24.8 53.741 8.612 32.243zm47.754 37.941c-1.443 2.171-3.877 3.475-6.484 3.473h-13.125l-19.7-13.133-4.266-12.8 26.914-5.382 12.973 12.972c.607.609 1.309 1.115 2.078 1.5 3.849 1.923 5.409 6.602 3.486 10.451-.144.289-1.876 2.919-1.876 2.919zm40.906-49.074c3.422-1.146 7.187.146 9.184 3.152l4.785 7.176-35.047 23.364-13.706-18.276 22.917-11.459zm-25.671-7.031-17.461 8.73-44.539-96.5c-1.854-4.011-6.607-5.759-10.618-3.906-.376.174-36.988 24.543-36.988 24.543-6.57 4.386-14.295 6.722-22.195 6.711h-9.465c-8.837 0-16-7.163-16-16s7.163-16 16-16c11.955.006 23.67-3.354 33.805-9.695l20.595-12.867c11.235-7.026 26.038-3.614 33.064 7.621.405.647 53.802 107.363 53.802 107.363zm-91.246-149.86c.002-5.513 4.472-9.981 9.985-9.979s9.981 4.472 9.979 9.985-4.471 9.98-9.984 9.979c-5.511-.008-9.975-4.474-9.98-9.985zm51.454 35.113c-4.946-8.481-12.846-14.841-22.188-17.863 9.6-10.566 8.816-26.914-1.75-36.514-9.447-8.583-23.746-8.985-33.661-.947-2.159-6.901-7.235-12.509-13.887-15.343l-7.016-3.008h6.735c11.26 6.811 24.735 8.953 37.551 5.969 5.255-1.183 10.295-3.177 14.937-5.91 18.023 2.316 32.444 12.424 35.653 27.093 3.537 10.855.523 21.002-.457 24.152-3.954 12.718-12.616 19.896-15.917 22.371zm50.526-89.675c13.249-.015 23.985-10.751 24-24v-24h24c4.418 0 8-3.582 8-8s-3.582-8-8-8h-24v-8h24c4.418 0 8-3.582 8-8s-3.582-8-8-8h-32c-4.418 0-8 3.582-8 8v32h-8c-13.255 0-24 10.745-24 24s10.745 24 24 24zm0-32h8v8c0 4.418-3.582 8-8 8s-8-3.582-8-8 3.582-8 8-8zm144-144h-32c-4.418 0-8 3.582-8 8v32h-8c-13.255 0-24 10.745-24 24s10.745 24 24 24 24-10.745 24-24v-48h24c4.418 0 8-3.582 8-8s-3.582-8-8-8zm-40 64c0 4.418-3.582 8-8 8s-8-3.582-8-8 3.582-8 8-8h8zm40 232h-32c-4.418 0-8 3.582-8 8v32h-8c-13.255 0-24 10.745-24 24s10.745 24 24 24 24-10.745 24-24v-48h24c4.418 0 8-3.582 8-8s-3.582-8-8-8zm-40 64c0 4.418-3.582 8-8 8s-8-3.582-8-8 3.582-8 8-8h8zm-376-80v-24h24c4.418 0 8-3.582 8-8s-3.582-8-8-8h-24v-8h24c4.418 0 8-3.582 8-8s-3.582-8-8-8h-32c-4.418 0-8 3.582-8 8v32h-8c-13.255 0-24 10.745-24 24s10.745 24 24 24 24-10.745 24-24zm-32 0c.006-4.416 3.584-7.994 8-8h8v8c0 4.418-3.582 8-8 8s-8-3.582-8-8z" fill="#c5cc00"/></svg>